HIERARCHY
ROOT pelvis
{
  OFFSET 0 100 0
  CHANNELS 6 Xposition Yposition Zposition Zrotation Xrotation Yrotation
  JOINT pelvis_right_femur
  {
    OFFSET -10.78128 -3.44521 -0.5502486
    CHANNELS 3 Zrotation Xrotation Yrotation
    JOINT right_femur_tibia
    {
      OFFSET -0.8047443 -44.0398 -0.1307829
      CHANNELS 3 Zrotation Xrotation Yrotation
      JOINT right_tibia_foot
      {
        OFFSET 3.006224 -47.83518 -5
        CHANNELS 3 Zrotation Xrotation Yrotation
        End Site
        {
          OFFSET 0 -5 15
        }
      }
    }
  }
  JOINT pelvis_left_femur
  {
    OFFSET 10.78128 -3.44521 -0.5502486
    CHANNELS 3 Zrotation Xrotation Yrotation
    JOINT left_femur_tibia
    {
      OFFSET 0.8047443 -44.0398 -0.1307829
      CHANNELS 3 Zrotation Xrotation Yrotation
      JOINT left_tibia_foot
      {
        OFFSET -4.370144 -48.10324 -4.275266
        CHANNELS 3 Zrotation Xrotation Yrotation
        End Site
        {
          OFFSET 0 -5 15
        }
      }
    }
  }
  JOINT pelvis_spine1
  {
    OFFSET 0 6.468898 -3.129235
    CHANNELS 3 Zrotation Xrotation Yrotation
    JOINT spine1
    {
      OFFSET 0 23.15396 4.99043
      CHANNELS 3 Zrotation Xrotation Yrotation
      JOINT spine2
      {
        OFFSET 0 20.79997 -5.064912
        CHANNELS 3 Zrotation Xrotation Yrotation
        JOINT neck
        {
          OFFSET 0 14.38658 9.616178
          CHANNELS 3 Zrotation Xrotation Yrotation
          End Site
          {
            OFFSET 0 20 0
          }
        }
      }
      JOINT right_manubrium
      {
        OFFSET -5.722621 16.35077 3.967754
        CHANNELS 3 Zrotation Xrotation Yrotation
        JOINT right_clavicle
        {
          OFFSET -13.16364 1.694482 -4.693211
          CHANNELS 3 Zrotation Xrotation Yrotation
          JOINT right_humerus
          {
            OFFSET -28.5034 -0.3100689 -2.792744
            CHANNELS 3 Zrotation Xrotation Yrotation
            JOINT right_radius
            {
              OFFSET -25.15693 0.02248979 -1.271978
              CHANNELS 3 Zrotation Xrotation Yrotation
              End Site
              {
                OFFSET -15 0 0
              }
            }
          }
        }
      }
      JOINT left_manubrium
      {
        OFFSET 5.722621 16.35077 3.967754
        CHANNELS 3 Zrotation Xrotation Yrotation
        JOINT left_clavicle
        {
          OFFSET 13.16364 1.694482 -4.693211
          CHANNELS 3 Zrotation Xrotation Yrotation
          JOINT left_humerus
          {
            OFFSET 29.39168 -1.063119 -2.237045
            CHANNELS 3 Zrotation Xrotation Yrotation
            JOINT left_radius
            {
              OFFSET 24.59957 -0.9528479 0.9047498
              CHANNELS 3 Zrotation Xrotation Yrotation
              End Site
              {
                OFFSET 15 -0 -0
              }
            }
          }
        }
      }
    }
  }
}
MOTION
Frames: 15
Frame Time: 0.0416666666667
0 103.5113 0 -0.3214705 1.475715 0.008308169 5.380437 -17.60198 9.874112 -0 36.23146 -0 -5.030298 -14.34269 -2.445634 -6.198792 7.650854 -22.53101 -0 8.976124 -0 6.787427 -18.50767 26.20658 -3.293036 -5.33492 5.173483 3.386167 9.916865 -8.693669 1.410931 20.91179 6.827908 3.28593 -26.43011 9.797666 7.274625 -19.88438 12.0254 82.71704 33.81857 -18.22231 -0 0 19.83926 -7.425289 10.23954 2.802283 8.314529 -20.79959 2.067062 -96.58246 21.80973 23.25636 0 0 -7.74757 13.08627 19.08165 -2.879569
0.3205573 103.566 1.732935 -0.5782429 1.886745 0.04062231 5.941165 -20.07963 9.761214 -0 34.75131 -0 -5.116385 -13.51593 -2.419172 -6.070544 8.046394 -22.20858 -0 8.836189 -0 6.978888 -19.08239 25.88971 -3.255175 -4.840081 4.974644 3.508358 9.789635 -8.706825 1.412127 20.66457 6.994456 3.419928 -26.57248 9.874767 7.345688 -19.66247 12.07152 82.73746 34.16291 -18.25485 -0 0 19.22778 -7.504035 10.3309 3.165855 8.464875 -20.93709 2.053823 -96.10725 21.74945 22.76295 0 0 -8.930611 13.07511 18.58197 -2.673651
0.6455426 103.3713 3.85873 -1.050253 2.513635 0.1470113 6.787219 -25.3356 8.986283 -0 30.48038 -0 -5.433736 -11.6623 -2.326261 -5.714348 9.527745 -21.36992 -0 8.329112 -0 6.090994 -21.10314 24.30608 -3.157151 -3.629025 4.405938 3.766213 9.313733 -8.75579 1.358655 20.27919 7.358609 3.677474 -26.85854 9.930724 7.168503 -19.15376 12.04104 83.22555 34.39226 -18.81364 -0 0 17.81557 -7.902476 10.24 3.973755 8.503101 -21.19038 1.644835 -95.10462 22.75311 21.80568 0 0 -12.04222 11.21129 17.7894 -0.2816939
0.964943 103.0212 6.392818 -1.549196 3.172845 0.3379105 7.593524 -29.32479 8.412513 -0 26.88782 -0 -5.760925 -9.660718 -2.152632 -5.318942 10.46497 -20.35725 -0 8.682908 -0 4.989927 -22.61947 22.7277 -2.970821 -2.796236 3.954827 4.014772 9.016402 -8.874037 1.350131 19.86991 7.597308 3.8922 -27.2187 9.974797 7.016129 -18.68597 12.01468 83.51324 34.32239 -19.23478 -0 0 16.84348 -8.356854 10.3253 4.495642 8.64523 -21.47915 1.500448 -94.40442 22.96411 21.00699 0 0 -13.70252 10.36487 17.18114 0.7020025
1.268142 102.5789 9.443017 -2.076623 3.949606 0.6573228 8.45156 -32.9784 7.90163 -0 23.21817 -0 -6.119051 -7.479823 -1.925025 -4.910879 11.4148 -19.10918 -0 9.63498 -0 3.707407 -23.74022 20.89176 -2.696335 -2.04897 3.481248 4.25505 8.749719 -9.008767 1.3644 19.43628 7.780414 4.085189 -27.59649 10.0124 6.830322 -18.13191 11.9442 83.90449 34.29092 -19.74609 -0 0 15.76354 -8.763591 10.4193 4.911266 8.699247 -21.70878 1.308905 -93.64305 22.96695 20.12595 0 0 -15.11521 9.906272 16.43959 1.181957
1.546746 102.1349 13.0769 -2.554197 4.734952 1.135555 9.206709 -35.65419 7.437789 -0 19.96464 -0 -6.477367 -5.556578 -1.701801 -4.54508 12.40963 -17.81809 -0 11.24037 -0 2.163862 -24.119 18.77796 -2.333237 -1.448142 2.976062 4.439229 8.479972 -9.116989 1.372687 19.08529 7.895438 4.241331 -27.86333 9.987023 6.667475 -17.48414 11.82087 84.42769 34.42004 -20.39218 -0 0 14.55405 -9.009759 10.46632 5.203547 8.493426 -21.72236 0.9090169 -92.94536 23.22022 19.36423 0 0 -16.29698 9.381009 15.64562 1.735505
1.798802 101.7924 17.33853 -2.927289 5.400442 1.776013 9.732594 -36.8309 6.987571 -0 17.50377 -0 -6.86327 -4.168309 -1.513142 -4.249433 13.45484 -16.60102 -0 13.61188 -0 0.3929578 -23.363 16.41155 -1.843998 -1.023615 2.459499 4.514824 8.209402 -9.157952 1.328966 18.89524 7.957555 4.331797 -27.95288 9.86602 6.490382 -16.76769 11.64331 85.21983 34.78519 -21.21553 -0 0 13.13765 -8.995273 10.40614 5.379485 7.919929 -21.46074 0.1909926 -92.26381 23.91022 18.75357 0 0 -17.49466 8.614197 14.71643 2.666268
2.033761 101.6571 22.2105 -3.195054 5.783415 2.520971 9.971472 -36.0268 6.554949 -0 16.2342 -0 -7.362679 -3.543845 -1.37519 -3.976591 14.24071 -15.56401 -0 17.16953 -0 -1.568428 -21.15878 13.87477 -1.17974 -0.8156932 2.010449 4.459307 7.973813 -9.106073 1.190385 18.91525 7.980671 4.333867 -27.85476 9.614126 6.29262 -16.04695 11.46092 86.22707 35.27338 -22.09479 -0 0 11.62478 -8.727299 10.29646 5.480334 7.016795 -20.96614 -0.7656091 -91.66733 24.9329 18.38411 0 0 -18.63641 7.590223 13.6858 4.06619
2.273307 101.8196 27.59803 -3.409796 5.714683 3.226992 9.996266 -33.20254 6.187328 -0 16.26301 -0 -8.098185 -3.739127 -1.284116 -3.621404 14.14217 -14.70081 -0 22.67211 -0 -3.573879 -17.49164 11.3487 -0.3280733 -0.7830355 1.763763 4.299631 7.840714 -8.948081 0.9499766 19.14152 7.963984 4.237326 -27.61571 9.215189 6.098357 -15.41641 11.37066 87.18017 35.62524 -22.72055 -0 0 10.24489 -8.384523 10.29664 5.620288 5.965705 -20.41179 -1.700874 -91.25407 25.84334 18.32105 0 0 -19.44324 6.501142 12.66898 5.736608
2.546444 102.344 33.33237 -3.587965 5.076517 3.681408 9.890063 -28.86104 5.880119 -0 17.15127 -0 -9.083936 -4.624902 -1.222091 -3.139568 12.40944 -13.8615 -0 30.78349 -0 -5.321577 -12.87544 9.143198 0.5822614 -0.7606363 1.877926 4.106478 7.889126 -8.675651 0.6656869 19.53424 7.866808 4.054722 -27.29042 8.680402 5.982266 -14.99204 11.4755 87.68423 35.63482 -22.72348 -0 0 9.251085 -8.303888 10.55116 5.968387 4.96429 -19.99539 -2.342198 -91.10086 26.15224 18.61235 0 0 -19.56998 5.554631 11.82855 7.356375
2.875351 103.2509 39.20507 -3.587614 3.881584 3.699297 9.560291 -23.68713 5.504615 -0 17.92827 -0 -10.05692 -5.951224 -1.15517 -2.669252 8.641693 -12.83179 -0 41.08717 -0 -6.431657 -8.334433 7.679881 1.228598 -0.5499608 2.467697 3.928582 8.175256 -8.282061 0.4369425 20.05766 7.629623 3.822227 -26.86537 8.059033 6.002301 -14.88858 11.79852 87.54878 35.38279 -21.98304 -0 0 8.76698 -8.803994 11.0053 6.62708 4.106559 -19.79592 -2.618636 -91.14611 25.73106 19.20572 0 0 -18.99154 4.841217 11.22041 8.626772
3.255776 104.4784 45.02194 -3.161342 2.317939 3.273812 8.796361 -18.09875 4.92264 -0 17.62803 -0 -10.5485 -7.443941 -1.040376 -2.426539 3.113811 -11.52057 -0 51.48432 -0 -6.691372 -4.967239 7.336864 1.246434 -0.1032545 3.516301 3.728782 8.67454 -7.766299 0.3316014 20.68801 7.245403 3.595682 -26.22708 7.42717 6.127106 -15.14815 12.24226 86.89907 35.18876 -20.69657 -0 0 8.755864 -9.969853 11.42357 7.527543 3.438226 -19.75475 -2.658127 -91.18885 24.90535 19.8794 0 0 -18.16427 4.371186 10.74757 9.332566
3.650674 105.8463 50.65334 -2.202085 0.6765342 2.622627 7.552655 -12.24402 4.145657 -0 15.93072 -0 -10.25311 -8.893555 -0.8581723 -2.446113 -3.392668 -10.0309 -0 59.00594 -0 -6.2279 -3.342933 8.214982 0.5287573 0.4243531 4.831511 3.409839 9.247418 -7.137631 0.3387148 21.38456 6.792803 3.423679 -25.24567 6.852436 6.225206 -15.6924 12.6443 85.92886 35.25662 -19.07863 -0 0 9.145838 -11.61547 11.62221 8.4916 3.064352 -19.78331 -2.590987 -91.04674 24.12793 20.33703 0 0 -17.6869 4.137903 10.30137 9.428965
4.015482 107.0764 56.05484 -0.9003878 -0.7812539 2.038926 6.089208 -6.288158 3.327429 -0 13.25246 -0 -9.289787 -10.23055 -0.6355128 -2.486211 -10.03708 -8.514218 -0 61.41137 -0 -5.399516 -3.280657 10.04889 -0.6453242 0.8350424 6.107337 2.911521 9.700119 -6.424381 0.395932 22.07406 6.378376 3.309184 -23.91548 6.369669 6.122362 -16.39692 12.87272 84.70545 35.43491 -17.13064 -0 0 9.960745 -13.45648 11.59879 9.405414 3.093426 -19.81885 -2.447206 -90.7134 23.63881 20.44404 0 0 -17.79177 4.079452 9.881844 9.128433
4.338375 107.8709 61.25517 0.3413194 -1.896155 1.696883 4.822582 -0.5372773 2.62969 -0 10.32965 -0 -8.072941 -11.53804 -0.4166418 -2.169414 -16.19452 -7.014445 -0 58.05199 -0 -4.562874 -4.13225 12.35152 -1.778995 1.051045 7.060044 2.270523 9.899143 -5.68744 0.4434372 22.66052 6.066059 3.202907 -22.4155 5.992209 5.680606 -17.21553 12.87782 83.23951 35.3565 -14.73828 -0 0 11.32363 -15.2899 11.43847 10.30246 3.497874 -19.79365 -2.222993 -90.35778 23.40509 20.36661 0 0 -18.19807 4.055227 9.551714 8.812051
